<svg xmlns="http://www.w3.org/2000/svg" viewBox="0 0 64 64"><title>conveyor</title><g id="conveyor"><path d="M60.99,5.87A2.981,2.981,0,0,0,58,3H6A3,3,0,0,0,3,6a.57.57,0,0,0,.01.13A2.981,2.981,0,0,0,6,9H58a3,3,0,0,0,3-3A.57.57,0,0,0,60.99,5.87Z" style="fill:#57a4ff"></path><path d="M60.41,47.59A1.955,1.955,0,0,1,61,49a2.006,2.006,0,0,1-2,2H51V47h8A1.955,1.955,0,0,1,60.41,47.59Z" style="fill:#e0e0e2"></path><path d="M59,22.46a3.993,3.993,0,0,1-5.87-2.45A4.171,4.171,0,0,1,53,19a4,4,0,1,1,6,3.46Z" style="fill:#ff7956"></path><path d="M61,56a4.985,4.985,0,0,1-5,5H8A5,5,0,1,1,8,51H56A5,5,0,0,1,61,56Z" style="fill:#ff7956"></path><path d="M59,22.46V47H55V23.9l-7.1,7.09L45,31V28l8.13-7.99A3.993,3.993,0,0,0,59,22.46Z" style="fill:#ffeb99"></path><circle cx="56" cy="56" r="2" style="fill:#ffeb99"></circle><path d="M51,47v4H23V47a2.006,2.006,0,0,1,2-2H49A2.006,2.006,0,0,1,51,47Z" style="fill:#57a4ff"></path><circle cx="48" cy="56" r="2" style="fill:#ffeb99"></circle><circle cx="40" cy="56" r="2" style="fill:#ffeb99"></circle><path d="M39,34v5a2.006,2.006,0,0,1-2,2H29a2.006,2.006,0,0,1-2-2V34a2.006,2.006,0,0,1,2-2h8A2.006,2.006,0,0,1,39,34Z" style="fill:#57a4ff"></path><circle cx="32" cy="56" r="2" style="fill:#ffeb99"></circle><polygon points="29 13 29 23 3 23 3 13 14 13 18 13 29 13" style="fill:#ffeb99"></polygon><circle cx="24" cy="56" r="2" style="fill:#ffeb99"></circle><rect x="3" y="27" width="20" height="14" rx="2" ry="2" style="fill:#57a4ff"></rect><path d="M18,30a2,2,0,1,1-1.79,2.89A1.914,1.914,0,0,1,16,32,2.006,2.006,0,0,1,18,30Z" style="fill:#ffeb99"></path><polygon points="18 47 18 51 8 51 8 47 11 47 15 47 18 47" style="fill:#e0e0e2"></polygon><circle cx="16" cy="56" r="2" style="fill:#ffeb99"></circle><rect x="11" y="41" width="4" height="6" style="fill:#ff7956"></rect><rect x="6" y="34" width="4" height="4" style="fill:#ffeb99"></rect><circle cx="8" cy="56" r="2" style="fill:#ffeb99"></circle><path d="M32,53a3,3,0,1,0,3,3A3,3,0,0,0,32,53Zm0,4a1,1,0,1,1,1-1A1,1,0,0,1,32,57Z"></path><path d="M40,53a3,3,0,1,0,3,3A3,3,0,0,0,40,53Zm0,4a1,1,0,1,1,1-1A1,1,0,0,1,40,57Z"></path><path d="M48,53a3,3,0,1,0,3,3A3,3,0,0,0,48,53Zm0,4a1,1,0,1,1,1-1A1,1,0,0,1,48,57Z"></path><path d="M56,53a3,3,0,1,0,3,3A3,3,0,0,0,56,53Zm0,4a1,1,0,1,1,1-1A1,1,0,0,1,56,57Z"></path><path d="M24,53a3,3,0,1,0,3,3A3,3,0,0,0,24,53Zm0,4a1,1,0,1,1,1-1A1,1,0,0,1,24,57Z"></path><path d="M16,53a3,3,0,1,0,3,3A3,3,0,0,0,16,53Zm0,4a1,1,0,1,1,1-1A1,1,0,0,1,16,57Z"></path><path d="M8,53a3,3,0,1,0,3,3A3,3,0,0,0,8,53Zm0,4a1,1,0,1,1,1-1A1,1,0,0,1,8,57Z"></path><rect x="26" y="47" width="2" height="2"></rect><rect x="30" y="47" width="2" height="2"></rect><rect x="34" y="47" width="2" height="2"></rect><rect x="38" y="47" width="2" height="2"></rect><rect x="42" y="47" width="2" height="2"></rect><rect x="46" y="47" width="2" height="2"></rect><rect x="5" y="5" width="2" height="2"></rect><rect x="9" y="5" width="2" height="2"></rect><rect x="13" y="5" width="2" height="2"></rect><rect x="17" y="5" width="2" height="2"></rect><rect x="21" y="5" width="2" height="2"></rect><rect x="25" y="5" width="2" height="2"></rect><rect x="29" y="5" width="2" height="2"></rect><rect x="33" y="5" width="2" height="2"></rect><rect x="37" y="5" width="2" height="2"></rect><rect x="41" y="5" width="2" height="2"></rect><rect x="45" y="5" width="2" height="2"></rect><rect x="49" y="5" width="2" height="2"></rect><rect x="53" y="5" width="2" height="2"></rect><rect x="57" y="5" width="2" height="2"></rect><path d="M62,19a5,5,0,0,0-10,0,4.847,4.847,0,0,0,.066.653L44.3,27.287A1,1,0,0,0,44,28v2.586l-2.707,2.707,1.414,1.414L45.415,32,47.9,31.99a1,1,0,0,0,.7-.292L54,26.312V46H51.816A3,3,0,0,0,49,44H25a3,3,0,0,0-3,3v3H19V47a1,1,0,0,0-1-1H16V42h5a3,3,0,0,0,3-3V29a3,3,0,0,0-3-3H5a3,3,0,0,0-3,3V39a3,3,0,0,0,3,3h5v4H8a1,1,0,0,0-1,1v3.09A6,6,0,0,0,8,62H56a6,6,0,0,0,4.216-10.263A2.987,2.987,0,0,0,60,46.184V22.974A4.977,4.977,0,0,0,62,19Zm-5-3a3,3,0,1,1-3,3A3,3,0,0,1,57,16ZM47.485,29.992,46,30V28.419l6.816-6.7a5.015,5.015,0,0,0,1.477,1.471h0ZM24,47a1,1,0,0,1,1-1H49a1,1,0,0,1,1,1v3H24ZM17,32a1,1,0,1,1,1,1A1,1,0,0,1,17,32ZM4,39V29a1,1,0,0,1,1-1H21a1,1,0,0,1,1,1V39a1,1,0,0,1-1,1H19V34.816A2.995,2.995,0,1,0,15,32a3.069,3.069,0,0,0,.036.36l-3.484,1.746.9,1.788,3.472-1.74a3,3,0,0,0,1.08.662V40H5A1,1,0,0,1,4,39Zm8,3h2v4H12Zm5,6v2H9V48ZM56,60H8a4,4,0,0,1,0-8H56a4,4,0,0,1,0,8ZM52,50V48h7a1,1,0,0,1,0,2H52Zm6-4H56V23.9h0a5,5,0,0,0,2,0Z"></path><rect x="56" y="18" width="2" height="2"></rect><rect x="40" y="28" width="2" height="4"></rect><rect x="43" y="35" width="4" height="2"></rect><path d="M10,33H6a1,1,0,0,0-1,1v4a1,1,0,0,0,1,1h4a1,1,0,0,0,1-1V34A1,1,0,0,0,10,33ZM9,37H7V35H9Z"></path><rect x="5" y="29" width="2" height="2"></rect><rect x="9" y="29" width="5" height="2"></rect><path d="M3,24H29a1,1,0,0,0,1-1V13a1,1,0,0,0-1-1H19V10H32V31H29a3,3,0,0,0-3,3v5a3,3,0,0,0,3,3h8a3,3,0,0,0,3-3V34a3,3,0,0,0-3-3H34V10H58a4,4,0,0,0,0-8H6a4,4,0,0,0,0,8h7v2H3a1,1,0,0,0-1,1V23A1,1,0,0,0,3,24ZM38,34v5a1,1,0,0,1-1,1H29a1,1,0,0,1-1-1V34a1,1,0,0,1,1-1h8A1,1,0,0,1,38,34ZM4,6A2,2,0,0,1,6,4H58a2,2,0,0,1,0,4H6A2,2,0,0,1,4,6Zm11,4h2v2H15ZM4,14H28v8H4Z"></path><rect x="6" y="15" width="2" height="2"></rect><rect x="10" y="15" width="16" height="2"></rect><rect x="6" y="19" width="9" height="2"></rect><rect x="17" y="19" width="9" height="2"></rect></g></svg>